<svg width="24" height="18" viewBox="0 0 24 18" fill="none" xmlns="http://www.w3.org/2000/svg">
<path d="M0 2.75C0 1.50736 1.00736 0.5 2.25 0.5H21.75C22.9926 0.5 24 1.50736 24 2.75C24 3.16421 23.6642 3.5 23.25 3.5H0.75C0.335786 3.5 0 3.16421 0 2.75Z" fill="white"/>
<rect y="7.5" width="24" height="3" rx="1.5" fill="white"/>
<path d="M0 15.25C0 14.8358 0.335786 14.5 0.75 14.5H23.25C23.6642 14.5 24 14.8358 24 15.25C24 16.4926 22.9926 17.5 21.75 17.5H2.25C1.00736 17.5 0 16.4926 0 15.25Z" fill="white"/>
</svg>
